<?xml version="1.0" standalone="no"?>
<!DOCTYPE svg PUBLIC "-//W3C//DTD SVG 20010904//EN"
 "http://www.w3.org/TR/2001/REC-SVG-20010904/DTD/svg10.dtd">
<svg version="1.0" xmlns="http://www.w3.org/2000/svg"
 width="347.000000pt" height="111.000000pt" viewBox="0 0 347.000000 111.000000"
 preserveAspectRatio="xMidYMid meet">

<g transform="translate(0.000000,111.000000) scale(0.100000,-0.100000)"
fill="#000000" stroke="none">
<path d="M2230 910 c-8 -5 -27 -8 -41 -5 -30 7 -54 -15 -45 -42 7 -21 62 -83
73 -83 16 0 64 90 61 112 -3 25 -25 33 -48 18z"/>
<path d="M174 879 c-4 -7 4 -10 22 -9 49 3 53 1 63 -37 13 -47 14 -453 2 -485
-6 -17 -23 -28 -51 -37 -65 -19 -41 -23 36 -5 64 15 126 14 167 -2 10 -3 17
-1 17 5 0 6 -11 11 -24 11 -14 0 -32 7 -41 16 -14 15 -15 42 -9 253 4 130 10
245 14 255 4 11 22 25 41 32 30 11 19 13 -98 13 -85 1 -134 -3 -139 -10z"/>
<path d="M2787 791 c-6 -33 -18 -55 -50 -85 -23 -23 -51 -47 -62 -53 -13 -9
-15 -13 -5 -12 59 5 57 9 62 -123 6 -170 36 -228 118 -228 34 0 80 41 79 69 0
11 -3 9 -9 -6 -5 -12 -20 -29 -34 -38 -21 -14 -29 -15 -53 -3 -37 18 -44 55
-36 211 6 123 7 128 30 133 13 4 32 4 43 1 11 -3 20 -1 20 3 0 5 -19 10 -42
12 l-43 3 -5 80 c-5 76 -5 78 -13 36z"/>
<path d="M565 694 c-16 -7 -42 -13 -57 -14 -16 0 -28 -4 -28 -10 0 -5 9 -10
20 -10 34 0 41 -32 38 -192 l-3 -153 -28 -13 c-16 -8 -27 -15 -25 -18 2 -2 45
2 96 8 91 12 117 24 65 30 -32 4 -38 25 -46 164 -5 84 -3 95 20 135 13 24 19
38 12 32 -20 -20 -28 -15 -31 20 -3 33 -3 34 -33 21z"/>
<path d="M1001 695 c-18 -8 -47 -15 -63 -15 -17 0 -27 -4 -23 -10 3 -5 15 -10
26 -10 32 0 40 -43 37 -199 l-3 -146 -28 -13 c-16 -8 -27 -15 -25 -17 7 -7
188 19 188 27 0 4 -11 8 -25 8 -34 0 -41 22 -48 149 -5 88 -4 109 12 141 17
36 17 37 0 33 -16 -4 -17 0 -12 31 3 20 4 36 2 36 -2 -1 -19 -7 -38 -15z"/>
<path d="M670 691 c-11 -8 -5 -11 26 -11 29 0 47 -6 60 -21 17 -19 19 -35 16
-173 -2 -114 -7 -155 -18 -167 -13 -14 -8 -16 51 -17 61 0 83 9 50 22 -12 4
-15 29 -15 133 0 146 -10 194 -45 217 -31 20 -105 30 -125 17z"/>
<path d="M1110 690 c-11 -7 -4 -10 26 -10 29 0 47 -6 60 -21 17 -19 19 -35 16
-173 -3 -114 -7 -155 -18 -167 -13 -15 -8 -16 53 -17 61 -1 66 1 49 13 -16 12
-19 32 -23 157 -2 79 -9 155 -15 170 -16 42 -110 73 -148 48z"/>
<path d="M2454 692 c-55 -8 -102 -109 -75 -161 7 -11 44 -37 84 -56 114 -56
146 -110 91 -154 -46 -36 -149 -21 -160 24 -9 35 -1 59 20 63 26 5 46 -16 26
-28 -8 -5 -12 -11 -9 -14 3 -3 14 0 24 8 26 19 13 46 -23 46 -36 0 -52 -16
-52 -55 0 -47 29 -68 100 -73 57 -4 61 -3 94 30 42 42 55 102 32 146 -11 22
-35 39 -83 61 -38 17 -79 37 -93 44 -59 30 -20 107 55 107 22 0 47 -6 55 -12
12 -11 12 -10 2 3 -13 17 -51 26 -88 21z"/>
<path d="M3117 689 c23 -5 47 -17 54 -25 7 -8 13 -53 15 -107 2 -50 6 -106 9
-124 3 -17 1 -34 -5 -38 -12 -8 -13 -26 -1 -22 5 1 20 -14 33 -33 24 -35 62
-50 79 -33 6 6 -2 8 -21 5 l-30 -4 0 148 c0 98 -4 157 -13 173 -20 39 -61 63
-113 67 l-49 3 42 -10z"/>
<path d="M1473 665 c-67 -34 -105 -88 -111 -160 -6 -73 2 -98 45 -146 53 -58
84 -72 147 -64 123 17 202 159 153 275 -19 44 -41 64 -97 89 -76 32 -83 32
-137 6z m111 -10 c52 -22 70 -67 70 -175 0 -134 -30 -174 -126 -168 -47 3 -52
6 -70 39 -28 54 -34 155 -14 217 33 98 65 118 140 87z"/>
<path d="M2020 677 c25 -13 28 -23 17 -67 -6 -25 -6 -24 5 1 6 15 24 34 39 43
24 14 34 15 68 4 l40 -13 3 -130 c4 -170 1 -186 -42 -208 -27 -14 -29 -18 -10
-13 14 3 61 6 105 7 44 1 71 3 60 6 -11 3 -24 9 -30 14 -5 5 -11 89 -12 187
-3 163 -4 177 -20 173 -29 -6 -134 -5 -193 3 -49 6 -52 5 -30 -7z"/>
<path d="M3023 670 c-46 -27 -41 -34 5 -8 46 27 48 28 36 28 -5 0 -24 -9 -41
-20z"/>
<path d="M1761 650 c17 -14 39 -53 53 -90 14 -36 45 -109 70 -164 l44 -98 16
30 c18 35 46 113 45 127 0 6 -7 -6 -15 -25 l-15 -35 -19 25 c-11 14 -20 28
-20 32 0 4 -16 40 -35 81 -40 85 -44 116 -15 124 44 12 16 21 -59 19 l-79 -1
29 -25z"/>
<path d="M2582 654 c-8 -9 -10 -24 -5 -41 7 -27 7 -27 14 12 8 47 8 47 -9 29z"/>
<path d="M3036 601 c-4 -5 3 -7 14 -4 23 6 26 13 6 13 -8 0 -17 -4 -20 -9z"/>
<path d="M3065 508 c-59 -11 -80 -28 -96 -75 -24 -72 22 -133 101 -133 25 0
55 7 66 15 18 13 16 14 -17 8 -20 -3 -46 0 -57 6 -50 27 -29 150 29 170 16 5
29 12 29 15 0 4 -1 5 -2 5 -2 -1 -25 -6 -53 -11z"/>
<path d="M1991 484 c0 -11 3 -14 6 -6 3 7 2 16 -1 19 -3 4 -6 -2 -5 -13z"/>
<path d="M2862 383 c-10 -19 -6 -43 7 -43 4 0 7 10 7 23 -1 15 4 22 17 21 9
-1 17 2 17 7 0 16 -39 9 -48 -8z"/>
</g>
</svg>
